<svg width="32" height="32" viewBox="0 0 32 32" fill="none" xmlns="http://www.w3.org/2000/svg">
<path d="M13.3334 17.3332C13.906 18.0987 14.6365 18.7321 15.4754 19.1905C16.3143 19.6488 17.242 19.9214 18.1956 19.9896C19.1491 20.0579 20.1061 19.9204 21.0018 19.5862C21.8975 19.2521 22.7108 18.7293 23.3867 18.0532L27.3867 14.0532C28.6011 12.7959 29.273 11.1118 29.2578 9.36386C29.2427 7.61589 28.5415 5.9438 27.3055 4.70775C26.0694 3.47169 24.3973 2.77057 22.6494 2.75538C20.9014 2.74019 19.2174 3.41215 17.96 4.62654L15.6667 6.90654M18.6666 14.6666C18.094 13.9011 17.3635 13.2676 16.5246 12.8093C15.6856 12.351 14.758 12.0784 13.8044 12.0101C12.8509 11.9418 11.8938 12.0794 10.9982 12.4135C10.1025 12.7476 9.28914 13.2705 8.61329 13.9466L4.61329 17.9466C3.39891 19.2039 2.72694 20.8879 2.74213 22.6359C2.75732 24.3839 3.45845 26.056 4.6945 27.292C5.93056 28.5281 7.60264 29.2292 9.35062 29.2444C11.0986 29.2596 12.7826 28.5876 14.04 27.3732L16.32 25.0932" stroke="black" stroke-width="3" stroke-linecap="round" stroke-linejoin="round"/>
</svg>
