<svg width="32" height="32" viewBox="0 0 32 32" fill="none" xmlns="http://www.w3.org/2000/svg">
<path d="M2.66669 28C2.66684 26.3213 3.06321 24.6663 3.82356 23.1697C4.58391 21.673 5.68677 20.377 7.04245 19.3869C8.39813 18.3968 9.96835 17.7407 11.6254 17.4719C13.2825 17.2031 14.9796 17.3292 16.5787 17.84M26 19.0667L25.4667 20.2667M22.5334 27.7334L22 28.9334M28.9334 26.0001L27.7334 25.4668M20.2668 22.5333L19.0668 22M28.9334 22L27.7334 22.5333M20.2668 25.4668L19.0668 26.0001M26 28.9334L25.4667 27.7334M22.5334 20.2667L22 19.0667M20 10.6667C20 14.3486 17.0153 17.3333 13.3334 17.3333C9.65146 17.3333 6.66669 14.3486 6.66669 10.6667C6.66669 6.98477 9.65146 4 13.3334 4C17.0153 4 20 6.98477 20 10.6667ZM28 24C28 26.2091 26.2092 28 24 28C21.7909 28 20 26.2091 20 24C20 21.7909 21.7909 20 24 20C26.2092 20 28 21.7909 28 24Z" stroke="black" stroke-width="3" stroke-linecap="round" stroke-linejoin="round"/>
</svg>
